<svg width="87" height="41" viewBox="0 0 87 41" fill="none" xmlns="http://www.w3.org/2000/svg">
<rect x="0.292389" y="38.8271" width="86" height="2" fill="#BF7506"/>
<path d="M17.6924 24.4271L13.0924 19.8271L17.6924 15.2271L16.2924 13.8271L10.2924 19.8271L16.2924 25.8271L17.6924 24.4271ZM22.8924 24.4271L27.4924 19.8271L22.8924 15.2271L24.2924 13.8271L30.2924 19.8271L24.2924 25.8271L22.8924 24.4271Z" fill="#18D26E"/>
<path d="M47.5708 18.2646H45.0822C45.0367 17.9427 44.9439 17.6567 44.8038 17.4067C44.6636 17.1529 44.4837 16.937 44.264 16.759C44.0443 16.5809 43.7905 16.4446 43.5026 16.3499C43.2185 16.2552 42.9098 16.2078 42.5765 16.2078C41.9742 16.2078 41.4496 16.3575 41.0026 16.6567C40.5556 16.9521 40.2091 17.384 39.9628 17.9521C39.7166 18.5165 39.5935 19.2021 39.5935 20.009C39.5935 20.8385 39.7166 21.5355 39.9628 22.0999C40.2128 22.6643 40.5613 23.0904 41.0083 23.3783C41.4553 23.6662 41.9723 23.8101 42.5594 23.8101C42.889 23.8101 43.1939 23.7665 43.4742 23.6794C43.7583 23.5923 44.0102 23.4654 44.2299 23.2987C44.4496 23.1283 44.6314 22.9218 44.7753 22.6794C44.9231 22.437 45.0253 22.1605 45.0822 21.8499L47.5708 21.8612C47.5064 22.3953 47.3454 22.9105 47.0878 23.4067C46.8341 23.8991 46.4913 24.3404 46.0594 24.7306C45.6314 25.1169 45.12 25.4237 44.5253 25.651C43.9344 25.8745 43.2659 25.9862 42.5197 25.9862C41.4818 25.9862 40.5538 25.7514 39.7356 25.2817C38.9212 24.812 38.2772 24.1321 37.8038 23.2419C37.3341 22.3518 37.0992 21.2741 37.0992 20.009C37.0992 18.74 37.3378 17.6605 37.8151 16.7703C38.2924 15.8802 38.9401 15.2021 39.7583 14.7362C40.5765 14.2665 41.4969 14.0317 42.5197 14.0317C43.1939 14.0317 43.8189 14.1264 44.3947 14.3158C44.9742 14.5052 45.4875 14.7817 45.9344 15.1453C46.3814 15.5052 46.745 15.9465 47.0253 16.4692C47.3094 16.9919 47.4913 17.5904 47.5708 18.2646ZM53.2327 25.9976C52.3502 25.9976 51.5869 25.8101 50.943 25.4351C50.3028 25.0563 49.8085 24.5298 49.46 23.8556C49.1115 23.1775 48.9373 22.3915 48.9373 21.4976C48.9373 20.5961 49.1115 19.8082 49.46 19.134C49.8085 18.4559 50.3028 17.9294 50.943 17.5544C51.5869 17.1756 52.3502 16.9862 53.2327 16.9862C54.1153 16.9862 54.8767 17.1756 55.5168 17.5544C56.1608 17.9294 56.657 18.4559 57.0055 19.134C57.3539 19.8082 57.5282 20.5961 57.5282 21.4976C57.5282 22.3915 57.3539 23.1775 57.0055 23.8556C56.657 24.5298 56.1608 25.0563 55.5168 25.4351C54.8767 25.8101 54.1153 25.9976 53.2327 25.9976ZM53.2441 24.1226C53.6456 24.1226 53.9808 24.009 54.2498 23.7817C54.5187 23.5506 54.7214 23.2362 54.8577 22.8385C54.9979 22.4408 55.068 21.9881 55.068 21.4806C55.068 20.973 54.9979 20.5203 54.8577 20.1226C54.7214 19.7249 54.5187 19.4105 54.2498 19.1794C53.9808 18.9484 53.6456 18.8328 53.2441 18.8328C52.8388 18.8328 52.4979 18.9484 52.2214 19.1794C51.9486 19.4105 51.7422 19.7249 51.602 20.1226C51.4657 20.5203 51.3975 20.973 51.3975 21.4806C51.3975 21.9881 51.4657 22.4408 51.602 22.8385C51.7422 23.2362 51.9486 23.5506 52.2214 23.7817C52.4979 24.009 52.8388 24.1226 53.2441 24.1226ZM62.318 25.9692C61.6551 25.9692 61.0547 25.7987 60.5168 25.4578C59.9827 25.1131 59.5585 24.6075 59.2441 23.9408C58.9335 23.2703 58.7782 22.4484 58.7782 21.4749C58.7782 20.4749 58.9392 19.6434 59.2611 18.9806C59.5831 18.3139 60.0111 17.8158 60.5452 17.4862C61.0831 17.1529 61.6721 16.9862 62.3123 16.9862C62.8009 16.9862 63.2081 17.0696 63.5339 17.2362C63.8634 17.3991 64.1286 17.6037 64.3293 17.8499C64.5339 18.0923 64.6892 18.3309 64.7952 18.5658H64.8691V14.1908H67.2839V25.8271H64.8975V24.4294H64.7952C64.6816 24.6718 64.5206 24.9124 64.3123 25.151C64.1077 25.3859 63.8407 25.5809 63.5111 25.7362C63.1854 25.8915 62.7877 25.9692 62.318 25.9692ZM63.085 24.0431C63.4752 24.0431 63.8047 23.937 64.0736 23.7249C64.3464 23.509 64.5547 23.2078 64.6986 22.8215C64.8464 22.4351 64.9202 21.9825 64.9202 21.4635C64.9202 20.9446 64.8483 20.4938 64.7043 20.1112C64.5604 19.7287 64.352 19.4332 64.0793 19.2249C63.8066 19.0165 63.4752 18.9124 63.085 18.9124C62.6873 18.9124 62.352 19.0203 62.0793 19.2362C61.8066 19.4521 61.6002 19.7514 61.46 20.134C61.3199 20.5165 61.2498 20.9597 61.2498 21.4635C61.2498 21.9711 61.3199 22.42 61.46 22.8101C61.6039 23.1965 61.8104 23.4995 62.0793 23.7192C62.352 23.9351 62.6873 24.0431 63.085 24.0431ZM73.2512 25.9976C72.3535 25.9976 71.5807 25.8158 70.933 25.4521C70.2891 25.0847 69.7929 24.5658 69.4444 23.8953C69.0959 23.2211 68.9217 22.4237 68.9217 21.5033C68.9217 20.6056 69.0959 19.8177 69.4444 19.1396C69.7929 18.4616 70.2834 17.9332 70.916 17.5544C71.5523 17.1756 72.2985 16.9862 73.1546 16.9862C73.7304 16.9862 74.2663 17.079 74.7626 17.2646C75.2626 17.4465 75.6982 17.7211 76.0694 18.0885C76.4444 18.4559 76.736 18.9181 76.9444 19.4749C77.1527 20.0279 77.2569 20.6756 77.2569 21.4181V22.0828H69.8876V20.5828H74.9785C74.9785 20.2343 74.9027 19.9256 74.7512 19.6567C74.5997 19.3878 74.3895 19.1775 74.1205 19.026C73.8554 18.8707 73.5467 18.7931 73.1944 18.7931C72.827 18.7931 72.5012 18.8783 72.2171 19.0487C71.9368 19.2154 71.7171 19.4408 71.558 19.7249C71.3989 20.0052 71.3175 20.3177 71.3137 20.6624V22.0885C71.3137 22.5203 71.3932 22.8934 71.5523 23.2078C71.7152 23.5222 71.9444 23.7646 72.2398 23.9351C72.5353 24.1056 72.8857 24.1908 73.291 24.1908C73.5599 24.1908 73.8061 24.1529 74.0296 24.0771C74.2531 24.0014 74.4444 23.8878 74.6035 23.7362C74.7626 23.5847 74.8838 23.3991 74.9671 23.1794L77.2057 23.3271C77.0921 23.865 76.8592 24.3347 76.5069 24.7362C76.1584 25.134 75.7076 25.4446 75.1546 25.6681C74.6054 25.8878 73.9709 25.9976 73.2512 25.9976Z" fill="#18D26E"/>
</svg>
