<svg width="91" height="41" viewBox="0 0 91 41" fill="none" xmlns="http://www.w3.org/2000/svg">
<rect x="0.292389" y="38.8271" width="86" height="2" fill="#BF7506"/>
<g clip-path="url(#clip0_226_49)">
<path d="M28.0624 12.8571L29.4624 14.2571L16.7224 26.9971L11.1224 21.3971L12.5224 19.9971L16.7224 24.1971L28.0624 12.8571ZM28.0624 10.0271L16.7224 21.3671L12.5224 17.1671L8.29239 21.3971L16.7224 29.8271L32.2924 14.2571L28.0624 10.0271Z" fill="#18D26E"/>
</g>
<path d="M41.4288 25.8271H37.3038V14.1908H41.4628C42.6333 14.1908 43.6409 14.4237 44.4856 14.8896C45.3303 15.3518 45.9799 16.0165 46.4344 16.884C46.8928 17.7514 47.1219 18.7893 47.1219 19.9976C47.1219 21.2097 46.8928 22.2514 46.4344 23.1226C45.9799 23.9938 45.3265 24.6624 44.4742 25.1283C43.6257 25.5942 42.6106 25.8271 41.4288 25.8271ZM39.764 23.7192H41.3265C42.0538 23.7192 42.6655 23.5904 43.1617 23.3328C43.6617 23.0715 44.0367 22.6681 44.2867 22.1226C44.5405 21.5734 44.6674 20.865 44.6674 19.9976C44.6674 19.1378 44.5405 18.4351 44.2867 17.8896C44.0367 17.3442 43.6636 16.9427 43.1674 16.6851C42.6712 16.4275 42.0594 16.2987 41.3322 16.2987H39.764V23.7192ZM52.8762 25.9976C51.9785 25.9976 51.2057 25.8158 50.558 25.4521C49.9141 25.0847 49.4179 24.5658 49.0694 23.8953C48.7209 23.2211 48.5467 22.4237 48.5467 21.5033C48.5467 20.6056 48.7209 19.8177 49.0694 19.1396C49.4179 18.4616 49.9084 17.9332 50.541 17.5544C51.1773 17.1756 51.9235 16.9862 52.7796 16.9862C53.3554 16.9862 53.8913 17.079 54.3876 17.2646C54.8876 17.4465 55.3232 17.7211 55.6944 18.0885C56.0694 18.4559 56.361 18.9181 56.5694 19.4749C56.7777 20.0279 56.8819 20.6756 56.8819 21.4181V22.0828H49.5126V20.5828H54.6035C54.6035 20.2343 54.5277 19.9256 54.3762 19.6567C54.2247 19.3878 54.0145 19.1775 53.7455 19.026C53.4804 18.8707 53.1717 18.7931 52.8194 18.7931C52.452 18.7931 52.1262 18.8783 51.8421 19.0487C51.5618 19.2154 51.3421 19.4408 51.183 19.7249C51.0239 20.0052 50.9425 20.3177 50.9387 20.6624V22.0885C50.9387 22.5203 51.0182 22.8934 51.1773 23.2078C51.3402 23.5222 51.5694 23.7646 51.8648 23.9351C52.1603 24.1056 52.5107 24.1908 52.916 24.1908C53.1849 24.1908 53.4311 24.1529 53.6546 24.0771C53.8781 24.0014 54.0694 23.8878 54.2285 23.7362C54.3876 23.5847 54.5088 23.3991 54.5921 23.1794L56.8307 23.3271C56.7171 23.865 56.4842 24.3347 56.1319 24.7362C55.7834 25.134 55.3326 25.4446 54.7796 25.6681C54.2304 25.8878 53.5959 25.9976 52.8762 25.9976ZM58.4614 25.8271V17.0999H60.7682V18.6396H60.8705C61.0523 18.1283 61.3554 17.7249 61.7796 17.4294C62.2038 17.134 62.7114 16.9862 63.3023 16.9862C63.9008 16.9862 64.4103 17.1359 64.8307 17.4351C65.2512 17.7306 65.5315 18.1321 65.6717 18.6396H65.7626C65.9406 18.1396 66.2626 17.74 66.7285 17.4408C67.1982 17.1378 67.7531 16.9862 68.3932 16.9862C69.2076 16.9862 69.8686 17.2457 70.3762 17.7646C70.8876 18.2798 71.1432 19.0109 71.1432 19.9578V25.8271H68.7285V20.4351C68.7285 19.9503 68.5997 19.5866 68.3421 19.3442C68.0845 19.1018 67.7626 18.9806 67.3762 18.9806C66.9368 18.9806 66.594 19.1207 66.3478 19.401C66.1016 19.6775 65.9785 20.0431 65.9785 20.4976V25.8271H63.6319V20.384C63.6319 19.9559 63.5088 19.615 63.2626 19.3612C63.0201 19.1075 62.7001 18.9806 62.3023 18.9806C62.0334 18.9806 61.791 19.0487 61.5751 19.1851C61.3629 19.3177 61.1944 19.5052 61.0694 19.7476C60.9444 19.9862 60.8819 20.2665 60.8819 20.5885V25.8271H58.4614ZM76.9984 25.9976C76.1158 25.9976 75.3525 25.8101 74.7086 25.4351C74.0684 25.0563 73.5741 24.5298 73.2256 23.8556C72.8771 23.1775 72.7029 22.3915 72.7029 21.4976C72.7029 20.5961 72.8771 19.8082 73.2256 19.134C73.5741 18.4559 74.0684 17.9294 74.7086 17.5544C75.3525 17.1756 76.1158 16.9862 76.9984 16.9862C77.8809 16.9862 78.6423 17.1756 79.2824 17.5544C79.9264 17.9294 80.4226 18.4559 80.7711 19.134C81.1196 19.8082 81.2938 20.5961 81.2938 21.4976C81.2938 22.3915 81.1196 23.1775 80.7711 23.8556C80.4226 24.5298 79.9264 25.0563 79.2824 25.4351C78.6423 25.8101 77.8809 25.9976 76.9984 25.9976ZM77.0097 24.1226C77.4112 24.1226 77.7465 24.009 78.0154 23.7817C78.2843 23.5506 78.487 23.2362 78.6234 22.8385C78.7635 22.4408 78.8336 21.9881 78.8336 21.4806C78.8336 20.973 78.7635 20.5203 78.6234 20.1226C78.487 19.7249 78.2843 19.4105 78.0154 19.1794C77.7465 18.9484 77.4112 18.8328 77.0097 18.8328C76.6044 18.8328 76.2635 18.9484 75.987 19.1794C75.7143 19.4105 75.5078 19.7249 75.3677 20.1226C75.2313 20.5203 75.1631 20.973 75.1631 21.4806C75.1631 21.9881 75.2313 22.4408 75.3677 22.8385C75.5078 23.2362 75.7143 23.5506 75.987 23.7817C76.2635 24.009 76.6044 24.1226 77.0097 24.1226Z" fill="#18D26E"/>
<defs>
<clipPath id="clip0_226_49">
<rect width="24" height="24" fill="white" transform="translate(8.29239 7.82715)"/>
</clipPath>
</defs>
</svg>
