<svg width="174" height="80" viewBox="0 0 174 80" fill="none" xmlns="http://www.w3.org/2000/svg">
<path d="M86.887 0C72.2504 0 63.1017 8.85965 59.443 26.579C64.932 17.7181 71.3357 14.3962 78.654 16.612C82.8287 17.8752 85.8135 21.5427 89.1171 25.6024C94.4982 32.2135 100.726 39.8678 114.33 39.8678C128.967 39.8678 138.114 31.0082 141.773 13.2889C136.285 22.1498 129.881 25.4717 122.563 23.2558C118.387 21.9927 115.404 18.3251 112.1 14.2654C106.718 7.65432 100.491 0 86.887 0ZM59.443 39.8678C44.8074 39.8678 35.6587 48.7275 32 66.4468C37.489 57.5859 43.8917 54.264 51.21 56.4798C55.3857 57.743 58.3705 61.4105 61.6731 65.4689C67.0552 72.0826 73.2834 79.7344 86.887 79.7344C101.523 79.7344 110.67 70.876 114.33 53.1567C108.841 62.0176 102.437 65.3395 95.12 63.1236C90.9444 61.8605 87.9595 58.1929 84.6559 54.1333C79.2749 47.5221 73.0467 39.8678 59.443 39.8678V39.8678Z" fill="url(#paint0_linear_18_114)"/>
<defs>
<linearGradient id="paint0_linear_18_114" x1="28.9505" y1="25.515" x2="131.918" y2="74.5565" gradientUnits="userSpaceOnUse">
<stop stop-color="#2298BD"/>
<stop offset="1" stop-color="#0ED7B5"/>
</linearGradient>
</defs>
</svg>
