<svg width="284" height="81" viewBox="0 0 284 81" fill="none" xmlns="http://www.w3.org/2000/svg">
<path d="M87.114 0C72.4773 0 63.3286 8.85965 59.6699 26.579C65.1589 17.7181 71.5626 14.3962 78.881 16.612C83.0556 17.8752 86.0405 21.5427 89.344 25.6024C94.7251 32.2135 100.953 39.8678 114.557 39.8678C129.194 39.8678 138.341 31.0082 142 13.2889C136.512 22.1498 130.108 25.4717 122.79 23.2558C118.614 21.9927 115.63 18.3251 112.327 14.2654C106.945 7.65432 100.718 0 87.114 0ZM59.6699 39.8678C45.0343 39.8678 35.8856 48.7275 32.2269 66.4468C37.7159 57.5859 44.1186 54.264 51.4369 56.4798C55.6126 57.743 58.5975 61.4105 61.9 65.4689C67.2821 72.0826 73.5103 79.7344 87.114 79.7344C101.75 79.7344 110.897 70.876 114.557 53.1567C109.068 62.0176 102.664 65.3395 95.347 63.1236C91.1713 61.8605 88.1864 58.1929 84.8829 54.1333C79.5018 47.5221 73.2736 39.8678 59.6699 39.8678V39.8678Z" fill="url(#paint0_linear_18_114)"/>
<defs>
<linearGradient id="paint0_linear_18_114" x1="29.1774" y1="25.515" x2="132.145" y2="74.5565" gradientUnits="userSpaceOnUse">
<stop stop-color="#2298BD"/>
<stop offset="1" stop-color="#0ED7B5"/>
</linearGradient>
</defs>
</svg>
